<svg width="32" height="32" viewBox="0 0 32 32" fill="none" xmlns="http://www.w3.org/2000/svg">
  <defs>
    <linearGradient id="grad1" x1="0%" y1="0%" x2="100%" y2="100%">
      <stop offset="0%" style="stop-color:#3B82F6;stop-opacity:1" />
      <stop offset="100%" style="stop-color:#1D4ED8;stop-opacity:1" />
    </linearGradient>
    <linearGradient id="grad2" x1="0%" y1="0%" x2="100%" y2="100%">
      <stop offset="0%" style="stop-color:#10B981;stop-opacity:1" />
      <stop offset="100%" style="stop-color:#059669;stop-opacity:1" />
    </linearGradient>
  </defs>
  
  <!-- Main document icon -->
  <rect x="6" y="4" width="16" height="20" rx="2" ry="2" fill="url(#grad1)" stroke="none"/>
  
  <!-- Document lines -->
  <rect x="8" y="8" width="8" height="1" fill="white" opacity="0.7"/>
  <rect x="8" y="10" width="10" height="1" fill="white" opacity="0.7"/>
  <rect x="8" y="12" width="6" height="1" fill="white" opacity="0.7"/>
  <rect x="8" y="14" width="9" height="1" fill="white" opacity="0.7"/>
  <rect x="8" y="16" width="7" height="1" fill="white" opacity="0.7"/>
  <rect x="8" y="18" width="8" height="1" fill="white" opacity="0.7"/>
  
  <!-- Scissors icon (bottom right) -->
  <circle cx="24" cy="24" r="6" fill="url(#grad2)"/>
  <g transform="translate(20, 20)">
    <path d="M3 3L5 5M5 3L3 5M8 8L6 6M6 8L8 6" stroke="white" stroke-width="1" stroke-linecap="round"/>
    <circle cx="3" cy="3" r="1" fill="white"/>
    <circle cx="5" cy="5" r="1" fill="white"/>
  </g>
</svg>
