<svg width="192" height="192" viewBox="0 0 192 192" fill="none" xmlns="http://www.w3.org/2000/svg">
  <defs>
    <linearGradient id="bg192" x1="0%" y1="0%" x2="100%" y2="100%">
      <stop offset="0%" style="stop-color:#EEF2FF;stop-opacity:1" />
      <stop offset="100%" style="stop-color:#DBEAFE;stop-opacity:1" />
    </linearGradient>
    <linearGradient id="doc192" x1="0%" y1="0%" x2="100%" y2="100%">
      <stop offset="0%" style="stop-color:#3B82F6;stop-opacity:1" />
      <stop offset="100%" style="stop-color:#1D4ED8;stop-opacity:1" />
    </linearGradient>
    <linearGradient id="scissors192" x1="0%" y1="0%" x2="100%" y2="100%">
      <stop offset="0%" style="stop-color:#10B981;stop-opacity:1" />
      <stop offset="100%" style="stop-color:#059669;stop-opacity:1" />
    </linearGradient>
  </defs>
  
  <!-- Background -->
  <rect width="192" height="192" fill="url(#bg192)"/>
  
  <!-- Main document icon -->
  <rect x="48" y="36" width="96" height="120" rx="12" ry="12" fill="url(#doc192)" stroke="none"/>
  
  <!-- Document lines -->
  <rect x="60" y="54" width="48" height="6" rx="3" fill="white" opacity="0.8"/>
  <rect x="60" y="66" width="60" height="6" rx="3" fill="white" opacity="0.8"/>
  <rect x="60" y="78" width="36" height="6" rx="3" fill="white" opacity="0.8"/>
  <rect x="60" y="90" width="54" height="6" rx="3" fill="white" opacity="0.8"/>
  <rect x="60" y="102" width="42" height="6" rx="3" fill="white" opacity="0.8"/>
  <rect x="60" y="114" width="48" height="6" rx="3" fill="white" opacity="0.8"/>
  <rect x="60" y="126" width="60" height="6" rx="3" fill="white" opacity="0.8"/>
  
  <!-- Scissors icon (bottom right) -->
  <circle cx="144" cy="144" r="42" fill="url(#scissors192)" opacity="0.95"/>
  <g transform="translate(120, 120)">
    <path d="M18 18L30 30M30 18L18 30M48 48L36 36M36 48L48 36" stroke="white" stroke-width="5" stroke-linecap="round" stroke-linejoin="round"/>
    <circle cx="18" cy="18" r="6" fill="white"/>
    <circle cx="30" cy="30" r="6" fill="white"/>
  </g>
</svg>
